<?xml version="1.0" standalone="no"?>
<!DOCTYPE svg PUBLIC "-//W3C//DTD SVG 20010904//EN"
 "http://www.w3.org/TR/2001/REC-SVG-20010904/DTD/svg10.dtd">
<svg version="1.0" xmlns="http://www.w3.org/2000/svg"
 width="512.000000pt" height="512.000000pt" viewBox="0 0 512.000000 512.000000"
 preserveAspectRatio="xMidYMid meet">
<metadata>
Created by potrace 1.11, written by Peter Selinger 2001-2013
</metadata>
<g transform="translate(0.000000,512.000000) scale(0.100000,-0.100000)"
fill="#000000" stroke="none">
<path d="M4326 5094 c-6 -16 -8 -16 -16 -4 -8 12 -10 11 -10 -5 0 -15 -2 -17
-9 -6 -5 7 -27 14 -49 15 -30 2 -39 -1 -32 -9 7 -8 5 -12 -5 -12 -8 0 -15 5
-15 11 0 5 -7 1 -16 -10 -8 -10 -13 -13 -9 -6 3 6 1 12 -4 12 -6 0 -11 -5 -11
-12 0 -9 -3 -9 -11 -1 -7 7 -21 8 -40 3 -17 -5 -31 -5 -35 1 -4 6 -14 3 -27
-8 -11 -10 -17 -13 -14 -7 5 8 -4 11 -26 9 -20 -2 -31 -8 -29 -16 2 -10 0 -10
-12 1 -12 9 -16 9 -16 1 0 -7 -5 -9 -10 -6 -6 4 -8 12 -4 18 3 7 -1 4 -9 -5
-8 -10 -17 -15 -21 -11 -4 4 -11 1 -16 -7 -6 -9 -10 -10 -10 -3 0 14 -58 15
-66 1 -3 -5 -12 -4 -20 3 -8 6 -14 7 -14 2 0 -5 -9 -9 -20 -10 -13 -1 -18 2
-13 10 4 7 -1 6 -11 -2 -10 -9 -34 -14 -58 -12 -30 1 -38 -1 -32 -11 6 -10 5
-11 -7 -1 -12 10 -18 10 -27 1 -9 -9 -12 -9 -12 2 0 13 -2 13 -10 0 -5 -8 -10
-10 -10 -5 0 8 -26 10 -73 6 -5 -1 -5 -7 0 -13 4 -7 -6 -5 -21 6 -16 10 -25
13 -22 7 7 -10 -19 -16 -53 -12 -7 2 -10 -3 -6 -9 8 -13 -17 -9 -27 5 -5 6 -8
5 -8 -3 0 -10 -5 -10 -21 -1 -12 6 -19 7 -15 1 3 -5 -17 -9 -49 -8 -30 1 -55
-2 -55 -7 0 -4 -9 -3 -20 3 -11 6 -20 7 -20 2 0 -5 -12 -9 -27 -8 -19 0 -27
-4 -25 -14 1 -10 -3 -8 -13 4 -9 12 -15 15 -15 7 0 -9 -8 -11 -26 -7 -17 5
-23 3 -19 -4 8 -13 -17 -9 -27 5 -5 6 -8 4 -8 -5 0 -13 -1 -13 -10 0 -9 13
-10 13 -10 0 0 -13 -1 -13 -10 0 -6 9 -10 11 -10 3 0 -7 -7 -10 -16 -6 -9 3
-20 0 -25 -8 -6 -10 -9 -10 -9 -1 0 6 -5 12 -11 12 -5 0 -7 -6 -3 -12 5 -10 4
-10 -6 -1 -15 14 -43 6 -33 -10 3 -6 1 -7 -5 -3 -19 12 -53 16 -47 5 8 -11 7
-11 -33 0 -20 6 -30 6 -27 0 4 -5 -3 -9 -15 -9 -13 0 -19 4 -14 11 3 6 -6 3
-22 -7 -15 -11 -25 -13 -21 -6 5 6 4 12 0 12 -5 0 -15 -6 -22 -12 -11 -11 -12
-10 -6 2 6 12 5 13 -5 3 -10 -9 -18 -9 -34 -1 -18 10 -19 9 -9 -3 10 -12 8
-15 -8 -15 -10 0 -19 5 -19 10 0 5 -7 1 -15 -10 -11 -14 -17 -16 -23 -7 -8 13
-29 13 -49 0 -8 -5 -13 -3 -13 3 0 7 -6 8 -19 0 -14 -7 -22 -7 -26 0 -5 8 -11
7 -21 -1 -8 -6 -14 -8 -14 -3 0 4 -5 3 -12 -4 -7 -7 -17 -8 -30 -1 -14 8 -18
6 -18 -8 0 -15 -1 -15 -13 2 -11 14 -16 15 -22 5 -6 -9 -4 -11 5 -5 9 5 11 4
6 -4 -6 -8 -12 -9 -20 -2 -7 6 -16 8 -20 4 -12 -12 -48 -14 -40 -2 4 8 1 8
-12 1 -11 -5 -40 -9 -66 -8 -27 1 -48 -3 -48 -9 0 -5 -5 -3 -10 5 -8 12 -10
12 -11 -5 0 -11 -3 -14 -6 -7 -4 10 -8 10 -20 1 -12 -10 -16 -10 -24 2 -7 11
-9 11 -9 0 0 -11 -3 -11 -17 0 -11 9 -14 10 -9 2 5 -10 -5 -12 -38 -10 -25 1
-48 -2 -50 -8 -3 -6 -8 -5 -14 4 -6 9 -12 10 -16 2 -5 -7 -15 -7 -33 0 -21 8
-24 7 -15 -4 9 -11 8 -14 -3 -14 -8 0 -15 5 -15 11 0 6 -5 5 -12 -2 -14 -14
-32 -16 -23 -2 3 6 -1 7 -9 4 -9 -3 -13 -10 -10 -15 3 -5 -6 -5 -20 1 -19 7
-26 6 -26 -2 0 -9 -3 -9 -11 -1 -13 13 -51 5 -42 -10 4 -6 1 -7 -8 -1 -18 11
-99 13 -105 2 -8 -13 -26 -9 -19 5 4 6 0 4 -8 -5 -15 -19 -32 -25 -22 -8 7 11
-23 2 -42 -12 -7 -5 -14 -5 -18 2 -5 7 -11 8 -19 1 -7 -6 -17 -6 -26 -1 -8 5
-22 4 -33 -2 -11 -5 -22 -6 -26 -2 -10 14 -43 14 -38 0 3 -6 -3 -12 -13 -12
-10 0 -16 4 -14 8 3 4 0 8 -5 8 -6 0 -11 -5 -11 -10 0 -7 -6 -7 -20 0 -15 8
-18 8 -14 -3 3 -8 -2 -14 -10 -14 -8 0 -12 5 -9 11 4 6 0 5 -8 -1 -12 -10 -18
-10 -27 -1 -9 9 -12 9 -12 0 0 -7 -10 -10 -23 -8 -12 2 -28 -1 -35 -7 -9 -7
-11 -5 -6 9 7 18 6 18 -16 -1 -13 -11 -20 -14 -16 -7 4 6 3 12 -1 12 -5 0 -15
-6 -22 -12 -9 -8 -12 -9 -7 -1 8 15 -36 4 -46 -11 -5 -8 -8 -7 -8 2 0 6 -5 12
-11 12 -5 0 -8 -4 -5 -8 3 -4 -17 -8 -45 -8 -27 1 -49 -3 -49 -8 0 -5 -7 -3
-15 4 -9 8 -15 8 -15 2 0 -6 -8 -11 -18 -11 -40 -1 -50 -5 -45 -16 3 -9 -4
-11 -23 -7 -19 3 -25 2 -19 -7 4 -8 2 -11 -6 -10 -21 4 -59 -11 -59 -23 0 -6
-3 -8 -6 -5 -4 3 -16 1 -28 -5 -11 -7 -24 -11 -29 -10 -4 1 -7 -5 -7 -13 0 -8
-6 -12 -13 -9 -8 3 -20 -2 -27 -10 -7 -9 -16 -13 -21 -10 -5 3 -9 -2 -9 -11 0
-9 -5 -13 -11 -9 -6 3 -24 -8 -39 -25 -16 -17 -36 -31 -44 -31 -8 0 -18 -9
-21 -20 -4 -11 -11 -18 -16 -15 -5 4 -9 -1 -9 -9 0 -10 -6 -13 -17 -9 -9 4
-14 2 -10 -3 3 -6 -3 -16 -13 -24 -10 -8 -16 -18 -13 -24 4 -5 0 -7 -8 -4 -14
6 -42 -16 -33 -25 3 -3 -5 -16 -18 -29 -41 -43 -58 -68 -58 -84 0 -8 -3 -13
-7 -11 -5 3 -17 -7 -27 -21 -11 -14 -15 -22 -9 -19 5 3 10 0 10 -8 0 -8 -3
-13 -6 -12 -3 1 -7 -2 -8 -7 0 -5 -8 -13 -17 -18 -9 -5 -16 -20 -16 -32 0 -13
-7 -26 -15 -29 -8 -4 -12 -15 -10 -27 2 -11 -1 -20 -7 -20 -5 0 -8 -7 -4 -15
3 -8 0 -15 -6 -15 -6 0 -8 -3 -5 -6 3 -4 2 -15 -3 -25 -7 -12 -6 -19 3 -22 7
-3 4 -6 -6 -6 -10 -1 -15 -6 -12 -11 4 -6 1 -17 -5 -25 -10 -12 -10 -15 1 -15
9 0 10 -3 3 -8 -6 -4 -12 -23 -13 -42 -1 -19 -3 -45 -4 -57 0 -12 -4 -20 -9
-17 -4 3 -5 -14 -3 -36 3 -28 1 -39 -7 -34 -7 5 -8 2 -3 -6 5 -7 8 -46 8 -87
-1 -40 3 -73 8 -73 5 0 9 -5 9 -11 0 -5 -4 -8 -8 -5 -5 3 -9 -1 -9 -9 0 -8 5
-11 10 -8 6 3 8 -7 5 -25 -2 -18 0 -28 5 -25 5 3 6 -4 2 -17 -5 -16 -4 -20 5
-15 9 6 9 2 0 -15 -8 -15 -8 -20 -1 -16 11 7 15 -4 12 -36 -1 -10 3 -18 9 -18
8 0 7 -6 -1 -21 -9 -17 -8 -20 2 -14 9 6 11 3 6 -8 -3 -10 -2 -17 3 -17 5 0 7
-7 4 -15 -4 -9 0 -15 7 -15 11 0 11 -3 -1 -10 -9 -6 -10 -10 -3 -10 12 0 13
-7 14 -62 1 -17 5 -25 12 -21 6 4 8 0 4 -10 -4 -10 -1 -17 6 -17 8 0 8 -3 -2
-9 -9 -6 -10 -11 -3 -15 6 -4 8 -14 5 -23 -5 -12 -3 -14 8 -8 11 7 11 5 -1
-10 -13 -17 -13 -18 0 -13 13 5 15 -1 12 -28 -3 -23 0 -34 9 -34 10 0 10 -3 2
-11 -12 -12 -6 -39 11 -51 13 -9 17 -38 5 -38 -6 0 -7 -6 -2 -12 8 -13 13 -33
15 -55 1 -7 4 -13 8 -13 3 0 6 -10 7 -22 1 -61 3 -69 15 -62 10 6 10 5 0 -8
-10 -12 -9 -18 3 -28 12 -10 13 -16 4 -26 -6 -8 -7 -14 -2 -14 5 0 9 -12 8
-27 0 -16 5 -27 10 -26 6 1 9 -13 9 -30 -1 -18 4 -38 10 -46 6 -9 7 -12 1 -9
-6 4 -11 -2 -11 -12 0 -14 3 -16 13 -8 10 8 12 7 7 -6 -4 -10 -1 -16 7 -16 9
0 10 -3 4 -8 -13 -9 -17 -32 -6 -32 4 0 8 -8 8 -18 0 -39 3 -53 11 -48 5 3 9
-1 9 -9 0 -8 -5 -12 -10 -8 -5 3 -3 -5 4 -18 7 -13 12 -36 10 -51 -2 -21 2
-28 16 -28 11 0 14 -3 7 -8 -6 -4 -9 -16 -7 -27 3 -11 4 -28 4 -38 0 -11 5
-15 12 -10 7 4 5 -2 -3 -12 -8 -10 -10 -16 -4 -12 7 4 15 0 18 -9 9 -22 8 -26
-5 -18 -8 5 -8 1 0 -14 6 -11 8 -28 5 -36 -4 -11 0 -16 12 -16 16 0 17 -2 4
-10 -11 -7 -11 -10 -2 -10 7 0 12 -8 10 -18 -1 -9 1 -22 5 -29 4 -6 3 -14 -3
-18 -6 -4 -2 -21 11 -47 13 -25 15 -37 7 -32 -10 6 -10 5 -2 -7 6 -8 10 -28 9
-46 -1 -18 2 -30 7 -27 5 3 5 11 2 17 -4 7 -4 9 1 5 8 -8 13 -42 16 -105 1
-20 5 -30 12 -26 6 4 8 0 4 -10 -3 -10 -3 -17 1 -17 5 0 7 -14 6 -32 -3 -36 5
-60 16 -53 5 3 6 -5 2 -17 -4 -16 -2 -19 9 -13 11 7 12 6 2 -7 -7 -8 -10 -18
-6 -21 3 -4 8 -19 9 -34 2 -14 8 -29 15 -33 8 -6 8 -9 -2 -13 -11 -4 -11 -6
-1 -6 9 -1 10 -6 2 -20 -7 -13 -7 -22 0 -26 5 -3 10 -15 10 -25 0 -10 6 -20
13 -23 9 -3 9 -7 0 -19 -7 -8 -9 -18 -4 -24 5 -5 11 -20 13 -34 1 -14 6 -27 9
-30 4 -3 8 -18 10 -35 2 -16 8 -36 14 -44 8 -11 7 -13 -3 -7 -11 6 -11 2 1
-20 8 -16 13 -37 12 -47 -2 -9 1 -17 6 -17 6 0 8 -4 5 -9 -4 -5 0 -12 6 -14
10 -4 10 -6 1 -6 -7 -1 -13 -6 -13 -12 0 -5 5 -7 11 -3 8 4 8 0 0 -15 -9 -16
-9 -21 1 -19 15 4 18 -22 4 -41 -8 -11 -8 -13 2 -7 8 5 12 0 12 -16 0 -13 6
-30 13 -37 10 -11 9 -12 -2 -6 -9 5 -12 3 -9 -6 3 -8 10 -13 15 -12 5 1 9 -7
9 -18 0 -10 -4 -19 -9 -19 -5 0 -5 -6 2 -13 8 -10 7 -17 -2 -26 -9 -10 -8 -11
5 -6 15 6 17 2 14 -24 -2 -17 0 -31 4 -31 4 0 6 -11 5 -25 -2 -18 2 -25 13
-26 10 0 12 -3 5 -6 -9 -3 -8 -11 5 -31 16 -26 16 -27 -2 -12 -18 14 -19 14
-8 -6 6 -12 8 -24 5 -28 -3 -3 -1 -6 5 -6 7 0 12 -5 12 -11 0 -5 -5 -7 -11 -3
-6 3 -2 -9 8 -27 19 -36 20 -40 22 -77 1 -15 5 -21 13 -16 8 5 9 2 5 -9 -3
-10 -2 -17 2 -17 5 0 7 -10 3 -22 -3 -12 -1 -19 4 -15 6 3 16 -3 23 -15 7 -11
8 -17 2 -13 -20 12 -11 -16 12 -39 13 -13 22 -31 21 -40 -1 -9 2 -14 7 -10 5
3 9 -2 9 -10 0 -9 9 -21 20 -28 11 -7 20 -20 20 -30 0 -11 6 -16 19 -13 13 2
18 -1 15 -9 -5 -13 30 -48 60 -59 10 -4 14 -12 10 -18 -4 -8 -3 -9 4 -5 7 4
12 2 12 -3 0 -6 9 -11 21 -11 14 0 19 -5 16 -14 -4 -10 0 -12 14 -9 12 4 25
-2 34 -13 7 -11 17 -16 21 -12 4 4 13 0 21 -10 9 -10 12 -11 7 -2 -5 10 1 8
16 -5 15 -13 21 -15 16 -5 -4 8 0 6 8 -4 9 -12 16 -14 16 -7 0 9 5 8 16 -3 19
-19 28 -21 18 -3 -6 9 -4 9 7 1 24 -18 51 -26 42 -11 -4 6 6 4 21 -7 18 -11
25 -13 21 -5 -5 8 2 5 14 -5 22 -20 22 -20 15 0 -7 17 -6 17 9 5 9 -7 17 -10
17 -6 0 4 8 1 17 -6 15 -12 16 -12 10 6 -7 20 -7 20 8 1 8 -11 15 -15 15 -10
0 5 9 10 20 10 11 0 20 -5 20 -11 0 -5 5 -3 10 5 5 8 10 10 10 5 0 -6 9 -11
20 -11 11 0 20 5 20 10 0 6 4 6 11 -1 13 -13 49 -5 49 10 0 6 7 2 15 -9 11
-13 13 -14 9 -3 -4 14 2 16 35 15 23 -1 41 2 41 6 0 5 12 6 26 4 20 -4 24 -2
20 11 -5 13 -4 14 9 3 8 -7 15 -8 15 -3 0 5 10 9 23 8 12 -1 30 5 40 13 16 15
17 14 11 -4 -5 -15 -2 -14 16 6 12 14 18 18 14 10 -7 -13 -5 -13 9 -1 13 10
17 10 17 1 0 -10 3 -10 15 0 8 6 19 9 24 6 5 -4 13 -1 17 5 5 8 3 9 -6 4 -9
-5 -11 -4 -6 3 5 9 13 9 26 2 13 -7 21 -7 26 2 5 7 3 8 -6 3 -9 -5 -11 -4 -6
3 5 9 13 9 26 2 12 -7 20 -6 22 1 2 5 19 12 38 15 19 3 39 7 45 7 5 1 16 9 23
17 8 8 11 9 7 2 -3 -6 -1 -12 4 -12 6 0 11 5 11 11 0 8 6 7 17 -2 9 -8 14 -9
10 -3 -4 7 0 14 8 18 8 3 15 1 15 -5 0 -6 5 -7 10 -4 6 4 8 10 5 15 -3 5 0 12
6 16 7 4 9 3 6 -3 -4 -6 4 -10 18 -10 14 0 28 4 31 8 3 5 10 6 16 3 6 -4 17 1
25 11 9 14 13 15 13 4 0 -8 3 -10 8 -4 4 6 15 11 25 12 41 2 48 3 44 11 -3 4
11 8 31 10 19 1 41 7 49 14 7 6 16 8 20 4 3 -3 0 -6 -7 -6 -7 0 -11 -2 -8 -5
10 -10 38 7 31 19 -3 6 -3 8 2 4 4 -4 15 -2 23 5 13 9 14 9 8 0 -10 -18 9 -16
24 2 10 12 16 13 28 3 10 -8 13 -8 9 -2 -4 8 8 14 38 18 25 4 45 13 45 19 0 7
4 6 10 -3 5 -8 10 -10 10 -3 0 6 8 10 18 9 9 -2 20 1 23 7 4 5 18 10 33 10 14
0 26 4 26 9 0 6 7 5 15 -2 12 -10 15 -10 15 0 0 7 6 10 14 7 8 -3 16 -1 18 4
2 6 18 11 36 11 17 1 32 5 32 9 0 4 9 6 20 4 11 -2 20 1 20 7 0 5 7 8 15 4 8
-3 15 0 15 7 0 8 4 6 10 -3 7 -11 10 -11 10 -2 0 7 5 10 10 7 6 -3 10 -1 10 4
0 6 5 11 11 11 5 0 7 -5 3 -11 -3 -6 5 -4 19 5 13 9 29 16 33 15 21 -4 45 2
40 9 -5 9 11 12 57 12 17 0 26 4 22 10 -3 6 0 7 9 4 9 -4 16 -1 16 6 0 10 3
10 15 0 12 -10 15 -10 15 0 0 8 3 10 7 7 3 -4 13 -1 21 6 13 9 14 9 8 0 -5 -9
-2 -11 8 -7 9 3 13 10 10 15 -3 5 0 9 5 9 6 0 11 -6 11 -12 0 -10 2 -10 9 0 4
7 12 12 17 11 21 -4 35 2 28 12 -4 7 1 7 16 -1 12 -6 24 -9 28 -6 3 3 -1 6 -9
6 -11 0 -12 2 -1 9 8 4 23 8 35 7 12 -1 25 3 29 9 5 6 8 5 8 -3 0 -7 5 -10 10
-7 6 4 8 10 5 14 -2 5 9 7 25 6 17 -1 30 2 30 7 0 5 4 7 9 3 5 -3 12 -1 16 5
3 5 11 10 16 10 6 0 8 -4 5 -9 -4 -5 5 -4 18 2 13 7 22 16 18 22 -3 5 1 4 10
-3 11 -9 18 -10 23 -2 3 5 17 10 31 10 13 0 24 4 24 8 0 5 15 8 34 7 19 0 33
2 30 6 -2 4 3 10 12 13 10 4 13 2 8 -7 -6 -9 -4 -9 8 1 9 7 20 12 24 11 22 -4
45 2 40 9 -5 9 -3 10 52 13 17 1 37 8 43 16 9 10 15 10 25 2 11 -9 14 -8 14 0
0 7 5 9 10 6 6 -3 10 0 10 7 0 9 3 9 10 -2 6 -10 10 -11 10 -3 0 7 6 12 13 10
6 -1 11 5 9 13 -3 12 -1 12 9 3 14 -14 41 -5 32 11 -3 6 -3 8 2 4 4 -4 15 -2
23 5 11 8 14 8 9 0 -5 -7 4 -6 23 3 17 9 28 19 25 23 -2 5 7 7 20 5 14 -1 23
2 19 7 -3 5 2 9 10 9 9 0 16 5 16 11 0 6 6 9 12 7 15 -5 38 15 38 34 0 10 3 9
10 -2 6 -10 10 -11 10 -2 0 6 7 12 16 12 8 0 12 4 9 10 -3 5 -1 10 4 10 6 0
21 11 33 25 11 13 25 22 29 19 4 -2 15 8 23 23 8 15 15 24 16 20 0 -12 35 24
35 37 1 6 6 10 12 9 6 -1 19 13 29 32 10 19 24 35 31 35 7 0 12 3 12 8 -4 21
2 32 14 26 7 -5 7 -1 -3 12 -8 10 -11 16 -6 12 9 -8 46 33 46 50 0 6 6 13 13
15 9 4 9 6 -1 6 -11 1 -11 4 0 16 37 41 39 45 26 45 -8 0 -6 5 5 11 9 6 15 14
12 19 -3 5 -1 11 4 14 5 4 8 17 6 31 -1 14 0 23 3 20 3 -2 11 0 19 7 11 9 11
14 -2 28 -12 14 -13 20 -4 26 8 4 10 3 5 -4 -4 -7 -3 -12 2 -12 12 0 21 33 18
65 -2 15 1 22 7 18 6 -4 8 0 4 9 -3 9 0 21 6 28 9 10 9 11 0 6 -9 -5 -11 -2
-7 8 3 9 11 13 16 10 6 -4 5 3 -1 15 -7 12 -8 21 -2 21 5 0 8 11 5 25 -3 15 0
25 8 25 9 0 9 3 0 12 -9 9 -9 15 1 27 8 10 8 13 0 8 -13 -8 -12 18 2 30 4 4 5
2 0 -6 -5 -9 -4 -12 2 -8 6 4 9 23 6 43 -4 29 -2 35 9 28 10 -6 11 -5 1 8 -7
8 -10 18 -6 21 10 10 10 77 0 77 -5 0 1 9 14 20 13 11 18 19 10 18 -7 -2 -16
3 -19 11 -3 9 0 11 9 6 8 -5 11 -5 7 0 -4 4 -3 14 3 22 14 17 -2 17 -21 0 -8
-6 -6 -2 4 11 11 12 15 22 10 22 -5 0 -2 5 6 10 12 8 13 11 1 19 -9 6 -10 11
-2 15 6 4 11 12 11 17 0 6 -6 7 -12 3 -9 -6 -9 -3 0 9 8 9 11 21 7 27 -3 5 -2
10 4 10 7 0 7 8 2 22 -10 28 -3 51 12 41 8 -4 7 -1 -1 9 -10 13 -10 17 0 21
10 4 10 6 1 6 -7 1 -13 6 -13 12 0 5 4 8 8 5 5 -3 9 1 9 9 0 8 -4 15 -9 15 -4
0 -8 5 -8 11 0 5 4 8 9 5 5 -3 11 1 15 9 3 8 2 15 -2 15 -4 0 -7 18 -7 39 0
22 3 37 7 35 4 -2 5 8 4 23 -2 16 2 31 8 35 8 6 7 8 -1 8 -7 0 -13 5 -13 11 0
5 4 8 8 5 5 -3 9 1 9 9 0 8 -5 15 -11 15 -6 0 -4 5 4 10 13 9 13 11 0 20 -13
9 -13 10 0 10 10 0 16 12 18 36 1 24 -2 33 -9 28 -8 -4 -8 0 0 15 7 11 8 21 4
21 -4 0 -1 5 7 10 8 5 10 10 4 10 -12 0 -11 41 1 59 3 6 0 11 -7 11 -9 0 -9 3
2 10 13 9 13 11 0 20 -13 8 -12 10 3 10 14 0 16 4 9 18 -6 10 -6 27 0 42 14
34 16 70 3 70 -5 0 -4 4 3 9 8 4 14 12 14 16 0 4 -6 12 -14 16 -11 7 -11 9 1
9 11 0 11 3 0 17 -8 9 -9 14 -3 10 7 -4 14 3 16 18 3 15 1 22 -5 18 -6 -4 -8
0 -4 11 4 10 7 20 7 22 0 3 4 2 10 -1 6 -3 7 1 4 9 -3 9 -11 13 -18 10 -6 -3
-3 1 6 9 12 9 14 17 7 24 -7 7 -6 18 2 36 10 21 9 30 -2 44 -9 11 -10 14 -1 9
8 -5 12 0 12 18 0 13 -6 27 -12 29 -9 4 -8 6 2 6 9 1 16 12 16 26 1 14 -2 22
-7 19 -5 -3 -9 0 -9 5 0 6 8 11 18 11 14 0 15 2 2 10 -13 9 -13 11 0 20 12 8
12 10 1 10 -11 0 -10 5 4 20 17 18 17 20 2 14 -13 -5 -16 -2 -11 10 3 9 11 16
16 16 6 0 5 6 -2 15 -9 11 -9 15 -1 15 9 0 9 5 1 20 -8 15 -8 20 2 20 10 0 10
2 -1 9 -8 5 -9 11 -3 15 6 3 8 15 5 27 -4 12 0 25 8 30 8 5 9 9 3 9 -12 0 -12
49 0 68 4 7 2 12 -4 12 -6 0 -8 5 -5 10 4 6 9 8 13 6 4 -2 6 18 5 45 -2 35 1
48 9 43 7 -5 8 -3 2 7 -12 19 -12 52 1 61 6 5 6 8 -2 8 -7 0 -13 5 -13 11 0 5
5 7 12 3 7 -5 8 -3 3 7 -11 18 -14 50 -4 43 4 -2 7 5 6 16 -1 11 -5 20 -10 20
-4 0 -5 5 -2 10 4 6 10 8 14 6 4 -3 8 1 8 9 0 8 -7 15 -16 16 -11 0 -9 4 6 11
21 10 22 12 5 25 -9 8 -11 11 -3 7 11 -5 13 -3 8 9 -3 9 -2 19 4 22 5 4 6 11
3 17 -9 15 -13 69 -5 64 3 -2 7 7 7 20 1 14 -2 21 -8 18 -6 -4 -5 4 2 16 6 12
9 33 5 47 -4 17 -2 23 6 18 8 -6 8 -2 0 14 -7 11 -8 21 -2 21 5 0 12 7 15 16
5 14 4 15 -8 5 -11 -9 -14 -8 -12 6 0 10 7 22 14 26 16 10 5 30 -11 20 -7 -3
-3 3 7 15 19 22 19 22 0 23 -18 0 -18 1 1 9 13 6 15 9 5 9 -12 1 -13 3 -1 10
10 6 10 10 1 16 -9 6 -9 10 1 16 11 7 11 9 -1 9 -13 0 -13 1 0 10 13 9 13 10
0 10 -13 0 -13 1 0 10 8 5 10 10 4 10 -7 0 -15 7 -18 16 -3 8 -2 12 3 9 5 -3
13 -1 16 5 4 6 1 9 -7 8 -7 -2 -14 4 -14 12 -1 8 -3 17 -4 20 -1 3 -3 17 -4
32 0 14 -5 30 -10 35 -5 5 -6 2 -1 -7 7 -12 6 -13 -6 -2 -12 11 -12 14 1 22
10 7 11 10 3 10 -7 0 -13 9 -13 20 0 11 -5 20 -11 20 -5 0 -7 5 -4 11 4 5 -1
20 -12 31 -10 12 -12 18 -5 14 11 -7 11 -4 1 12 -7 12 -16 19 -20 16 -4 -2 -6
4 -5 14 0 10 -5 16 -13 14 -12 -3 -12 0 -2 12 10 12 9 17 -8 26 -12 6 -21 17
-21 25 0 8 -4 15 -10 15 -5 0 -10 7 -10 15 0 8 -9 20 -20 27 -11 7 -20 19 -20
27 0 8 -3 11 -6 8 -4 -4 -22 10 -40 29 -18 20 -37 33 -43 29 -6 -3 -11 1 -11
9 0 9 -9 16 -20 16 -11 0 -20 7 -20 15 0 9 -6 12 -15 9 -8 -4 -17 1 -21 10 -3
9 -10 13 -15 10 -5 -3 -9 0 -9 7 0 7 -3 9 -7 6 -3 -4 -13 -1 -21 6 -13 10 -14
9 -7 -3 8 -13 6 -13 -8 -1 -9 7 -14 18 -10 25 4 8 2 7 -7 -1 -14 -13 -43 -6
-34 9 4 6 -3 5 -15 -1 -14 -8 -21 -8 -21 -1 0 5 -18 10 -41 10 -28 0 -38 4
-33 12 4 6 3 8 -2 5 -6 -3 -16 -2 -24 3 -8 5 -21 5 -31 -1 -13 -7 -20 -5 -27
7 -8 15 -10 14 -16 -2z m79 -22 c-3 -3 -11 0 -18 7 -9 10 -8 11 6 5 10 -3 15
-9 12 -12z"/>
</g>
</svg>
